<svg xmlns="http://www.w3.org/2000/svg" width="1280" height="640" fill="none" viewBox="0 0 1280 640">
  <g clip-path="url(#a)">
    <path fill="#f5f2ec" d="M1280 0H0v640h1280z"/>
    <path fill="#1a1614" fill-opacity=".1" d="M39.1 0h.4v640h-.4zM80.1 0h.4v640h-.4zM121.1 0h.4v640h-.4zM162.1 0h.4v640h-.4zM203.1 0h.4v640h-.4zM244.1 0h.4v640h-.4zM285.1 0h.4v640h-.4zM326.1 0h.4v640h-.4zM367.1 0h.4v640h-.4zM408.1 0h.4v640h-.4zM449.1 0h.4v640h-.4zM490.1 0h.4v640h-.4zM531.1 0h.4v640h-.4zM572.1 0h.4v640h-.4zM613.1 0h.4v640h-.4zM654.1 0h.4v640h-.4zM695.1 0h.4v640h-.4zM736.1 0h.4v640h-.4zM777.1 0h.4v640h-.4zM818.1 0h.4v640h-.4zM859.1 0h.4v640h-.4zM900.1 0h.4v640h-.4zM941.1 0h.4v640h-.4zM982.1 0h.4v640h-.4zM1023.1 0h.4v640h-.4zM1064.1 0h.4v640h-.4zM1105.1 0h.4v640h-.4zM1146.1 0h.4v640h-.4zM1187.1 0h.4v640h-.4zM1228.1 0h.4v640h-.4zM1269.1 0h.4v640h-.4z"/>
    <path fill="#1a1614" fill-opacity=".1" d="M1280 39.6v.4H0v-.4zM1280 79.6v.4H0v-.4zM1280 119.6v.4H0v-.4zM1280 159.6v.4H0v-.4zM1280 199.6v.4H0v-.4zM1280 239.6v.4H0v-.4zM1280 279.6v.4H0v-.4zM1280 319.6v.4H0v-.4zM1280 359.6v.4H0v-.4zM1280 399.6v.4H0v-.4zM1280 439.6v.4H0v-.4zM1280 479.6v.4H0v-.4zM1280 519.6v.4H0v-.4zM1280 559.6v.4H0v-.4zM1280 599.6v.4H0v-.4zM1280 639.6v.4H0v-.4z"/>
    <path fill="#1a1614" d="M283.34 84v1.563h-6.219V84zm-4.406-2.875h1.843v11.438q0 .78.227 1.171.234.384.594.516.366.125.773.125.305 0 .5-.031l.313-.063.375 1.656q-.188.07-.524.141a4 4 0 0 1-.851.078 3.7 3.7 0 0 1-1.532-.336 3.05 3.05 0 0 1-1.234-1.023q-.484-.689-.484-1.734zM270.707 96.25q-1.688 0-2.906-.797-1.22-.797-1.875-2.195-.656-1.399-.656-3.195 0-1.83.671-3.227.68-1.407 1.891-2.195 1.219-.797 2.844-.797 1.266 0 2.281.469t1.664 1.312.805 1.969h-1.844q-.211-.82-.937-1.453-.72-.641-1.938-.641-1.078 0-1.891.563-.804.555-1.257 1.57-.446 1.007-.446 2.367 0 1.39.438 2.422.445 1.03 1.25 1.601.812.57 1.906.57.718 0 1.305-.25.585-.25.992-.718.406-.468.578-1.125h1.844a4.26 4.26 0 0 1-.774 1.914 4.3 4.3 0 0 1-1.617 1.344q-1 .492-2.328.492M256.967 96.281q-1.141 0-2.071-.43a3.56 3.56 0 0 1-1.476-1.257q-.547-.828-.547-2 0-1.032.406-1.672a2.87 2.87 0 0 1 1.086-1.016 5.7 5.7 0 0 1 1.5-.547 18 18 0 0 1 1.664-.296 75 75 0 0 1 1.774-.211q.687-.08 1-.258.32-.18.32-.625v-.063q0-1.156-.633-1.797-.624-.64-1.898-.64-1.32 0-2.071.578-.75.578-1.054 1.234l-1.75-.625q.468-1.094 1.25-1.703a4.7 4.7 0 0 1 1.719-.86 7.1 7.1 0 0 1 1.843-.25q.579 0 1.328.141.759.133 1.461.555.712.422 1.18 1.273.47.852.469 2.282V96h-1.844v-1.625h-.094q-.187.391-.625.836-.437.446-1.164.758t-1.773.312m.281-1.656q1.094 0 1.844-.43.757-.429 1.14-1.11.391-.678.391-1.429V89.97q-.117.141-.516.258a9 9 0 0 1-.906.195 41 41 0 0 1-.992.14q-.477.055-.773.094-.72.094-1.344.305a2.3 2.3 0 0 0-1 .617q-.375.406-.375 1.11 0 .96.711 1.453.719.484 1.82.484M245.662 96.25q-1.734 0-2.992-.766-1.25-.773-1.93-2.156-.672-1.39-.672-3.234t.672-3.25q.68-1.414 1.891-2.203 1.218-.797 2.844-.797.937 0 1.851.312.914.313 1.664 1.016.75.695 1.196 1.844.445 1.148.445 2.828v.781h-9.25v-1.594h7.375q0-1.016-.406-1.812a3.06 3.06 0 0 0-1.141-1.258q-.735-.46-1.734-.461-1.102 0-1.907.547-.797.54-1.226 1.406a4.1 4.1 0 0 0-.43 1.86v1.062q0 1.359.469 2.305.477.937 1.32 1.43.844.484 1.961.484.726 0 1.313-.203a2.8 2.8 0 0 0 1.023-.625 2.8 2.8 0 0 0 .664-1.047l1.781.5a3.94 3.94 0 0 1-.945 1.594q-.665.68-1.641 1.062-.976.375-2.195.375M226.938 96V80h5.406q1.875 0 3.078.64 1.203.633 1.781 1.743.579 1.11.578 2.523 0 1.415-.578 2.508-.577 1.094-1.773 1.719-1.195.617-3.055.617H228V88h4.312q1.282 0 2.063-.375.789-.375 1.141-1.062.359-.696.359-1.657 0-.96-.359-1.68-.36-.718-1.149-1.109-.789-.398-2.086-.398h-3.406V96zm7.531-7.187L238.406 96h-2.25l-3.875-7.187z"/>
    <path fill="#000" d="M187.389 89.01a5.403 5.403 0 1 1-10.807 0 5.403 5.403 0 0 1 10.807 0m6.4-25.835c-3.253 0-7.509 2.32-11.813 6.337-4.302-3.995-8.56-6.288-11.81-6.288-.991 0-1.893.225-2.673.672-3.323 1.916-4.067 7.888-2.352 15.382C157.785 81.549 153 85.182 153 89.01c0 3.842 4.809 7.484 12.187 9.739-1.701 7.523-.942 13.504 2.388 15.418.773.452 1.667.665 2.663.665 3.25 0 7.509-2.32 11.813-6.342 4.301 3.998 8.56 6.291 11.81 6.291.991 0 1.892-.218 2.673-.665 3.32-1.914 4.067-7.885 2.351-15.382C206.215 96.482 211 92.843 211 89.01c0-3.843-4.809-7.485-12.187-9.744 1.701-7.516.942-13.502-2.388-15.419-.768-.444-1.66-.67-2.636-.672m-.013 2.635v.014c.544 0 .982.106 1.349.307 1.609.923 2.308 4.435 1.764 8.951a36 36 0 0 1-.604 3.48 57 57 0 0 0-7.509-1.29c-1.595-2.187-3.25-4.174-4.918-5.914 3.848-3.576 7.461-5.539 9.921-5.546zm-23.61.048c2.445 0 6.075 1.953 9.932 5.51a55.6 55.6 0 0 0-4.882 5.901c-2.675.283-5.205.72-7.523 1.3a36 36 0 0 1-.613-3.431c-.556-4.514.13-8.023 1.725-8.959.459-.217.967-.309 1.361-.321m11.798 7.37a48 48 0 0 1 3.286 3.78 71 71 0 0 0-3.25-.082 61 61 0 0 0-3.287.082 46 46 0 0 1 3.251-3.78m.036 6.347c1.788 0 3.569.082 5.321.225a63 63 0 0 1 5.32 9.198 66 66 0 0 1-2.448 4.712 62 62 0 0 1-2.852 4.52 62 62 0 0 1-5.341.236c-1.788 0-3.569-.084-5.321-.225a64 64 0 0 1-2.859-4.495 61 61 0 0 1-2.461-4.703 61 61 0 0 1 2.448-4.722 61 61 0 0 1 2.852-4.514A61 61 0 0 1 182 79.57zm-8.785.614c-.58.91-1.16 1.844-1.701 2.803a63 63 0 0 0-1.535 2.837 50 50 0 0 1-1.633-4.705 59 59 0 0 1 4.869-.935m17.545 0c1.68.249 3.299.556 4.848.935a52 52 0 0 1-1.595 4.672 56 56 0 0 0-1.546-2.838 63 63 0 0 0-1.704-2.77zm7.403 1.631c1.169.363 2.281.766 3.323 1.204 4.185 1.788 6.892 4.127 6.892 5.983-.012 1.856-2.719 4.205-6.904 5.981a36 36 0 0 1-3.275 1.192 58 58 0 0 0-2.658-7.202 56 56 0 0 0 2.622-7.163zm-32.372.01a56 56 0 0 0 2.659 7.201 56 56 0 0 0-2.625 7.163 34 34 0 0 1-3.311-1.208c-4.185-1.781-6.892-4.123-6.892-5.979s2.707-4.21 6.892-5.983c1.015-.435 2.127-.827 3.277-1.194m28.222 10.343a51 51 0 0 1 1.634 4.708c-1.547.38-3.18.7-4.872.942.58-.906 1.16-1.841 1.704-2.798a66 66 0 0 0 1.534-2.852m-24.034.048c.484.948.991 1.893 1.547 2.84a79 79 0 0 0 1.704 2.762 53 53 0 0 1-4.848-.933 53 53 0 0 1 1.595-4.671zm26.328 7.219c.27 1.191.483 2.339.614 3.439.555 4.514-.131 8.023-1.726 8.961-.355.217-.817.309-1.361.309-2.445 0-6.075-1.95-9.932-5.51a56 56 0 0 0 4.882-5.896c2.675-.286 5.205-.723 7.523-1.303m-28.589.024a57.5 57.5 0 0 0 7.508 1.286 58 58 0 0 0 4.918 5.911c-3.855 3.584-7.472 5.546-9.932 5.546-.532-.012-.982-.121-1.337-.319-1.609-.918-2.308-4.432-1.764-8.949a36 36 0 0 1 .607-3.475m11.019 1.547c1.064.048 2.151.082 3.251.082 1.112 0 2.211-.024 3.287-.082a46 46 0 0 1-3.251 3.782 49 49 0 0 1-3.287-3.782"/>
    <path fill="#1a1614" d="M503 43.89h-24.022L474 52.47l-4.978-8.58H445l29 50.22zm-29 30.137-16.53-28.638h10.706L474 55.491l5.824-10.102h10.706zM546.807 74.239q-1.656 0-2.856-.731-1.194-.738-1.842-2.058-.641-1.328-.641-3.088t.641-3.102q.648-1.35 1.805-2.103 1.163-.76 2.714-.76.895 0 1.767.298a4.4 4.4 0 0 1 1.589.97q.715.662 1.141 1.759.425 1.095.425 2.7v.745h-8.83v-1.521h7.04q0-.97-.388-1.73a2.9 2.9 0 0 0-1.088-1.2q-.702-.44-1.656-.44-1.051 0-1.82.521a3.43 3.43 0 0 0-1.17 1.343 3.94 3.94 0 0 0-.411 1.775v1.014q0 1.297.448 2.2.454.894 1.26 1.364.805.463 1.872.463.693 0 1.253-.194.567-.202.977-.597.41-.402.634-1l1.7.478a3.8 3.8 0 0 1-.902 1.522q-.635.648-1.566 1.014-.933.358-2.096.358M537.021 69.317v-6.771h1.76V74h-1.76v-1.939h-.119q-.403.872-1.253 1.484-.85.604-2.148.604-1.074 0-1.909-.47-.835-.477-1.312-1.431-.478-.963-.478-2.424v-7.279h1.76v7.16q0 1.252.701 1.998.708.746 1.805.746a3 3 0 0 0 1.335-.336 2.9 2.9 0 0 0 1.148-1.029q.47-.693.47-1.767M516.476 58.727l4.534 12.857h.179l4.534-12.857h1.939L522.054 74h-1.909l-5.608-15.273z"/>
    <g clip-path="url(#b)">
      <path fill="#000" d="M738.022 91.052a10.73 10.73 0 0 1-11.515-4.27 9.93 9.93 0 0 1-1.699-7.509q.118-.642.324-1.261l.253-.776.694.507a17.4 17.4 0 0 0 5.283 2.64l.502.152-.048.502a3.03 3.03 0 0 0 .546 2.006 3.23 3.23 0 0 0 3.468 1.288c.293-.078.573-.2.829-.362l13.509-8.608a2.81 2.81 0 0 0 1.267-1.88 3 3 0 0 0-.51-2.265 3.235 3.235 0 0 0-3.468-1.288c-.293.078-.573.2-.829.362l-5.155 3.287a9.8 9.8 0 0 1-2.743 1.206 10.73 10.73 0 0 1-11.515-4.268 9.92 9.92 0 0 1-1.697-7.51 9.32 9.32 0 0 1 4.21-6.24l13.507-8.611a9.8 9.8 0 0 1 2.743-1.206 10.73 10.73 0 0 1 11.515 4.27 9.93 9.93 0 0 1 1.699 7.509 9.5 9.5 0 0 1-.324 1.261l-.253.776-.692-.508a17.4 17.4 0 0 0-5.285-2.64l-.503-.153.049-.5a3.04 3.04 0 0 0-.546-2.009 3.23 3.23 0 0 0-3.468-1.285c-.293.078-.573.2-.829.362l-13.509 8.608a2.8 2.8 0 0 0-1.267 1.88 3 3 0 0 0 .51 2.265 3.24 3.24 0 0 0 3.468 1.288c.294-.079.575-.202.831-.365l5.153-3.287a9.8 9.8 0 0 1 2.743-1.203 10.73 10.73 0 0 1 11.515 4.268 9.92 9.92 0 0 1 1.697 7.51 9.32 9.32 0 0 1-4.21 6.243l-13.507 8.608a9.8 9.8 0 0 1-2.743 1.206m25.032-43.38c-5.384-7.708-16.023-9.992-23.712-5.091l-13.51 8.608a15.5 15.5 0 0 0-6.998 10.38 16.32 16.32 0 0 0 1.609 10.478 15.5 15.5 0 0 0-2.32 5.79 16.518 16.518 0 0 0 2.823 12.487c5.387 7.71 16.022 9.994 23.712 5.095l13.509-8.608a15.49 15.49 0 0 0 6.999-10.38 16.33 16.33 0 0 0-1.607-10.478 15.5 15.5 0 0 0 2.315-5.79 16.5 16.5 0 0 0-2.82-12.49"/>
    </g>
    <path fill="#1a1614" d="M835.796 75.239q-1.654 0-2.856-.731-1.192-.738-1.842-2.058-.64-1.328-.641-3.088 0-1.76.641-3.102.649-1.35 1.805-2.103 1.163-.76 2.714-.76.895 0 1.768.298a4.4 4.4 0 0 1 1.588.97q.716.662 1.141 1.759.425 1.095.425 2.7v.745h-8.829v-1.521h7.039q0-.97-.387-1.73a2.93 2.93 0 0 0-1.089-1.2q-.7-.44-1.656-.44-1.051 0-1.819.521-.761.514-1.171 1.343a3.94 3.94 0 0 0-.41 1.775v1.014q0 1.297.447 2.2a3.23 3.23 0 0 0 1.26 1.364q.805.463 1.872.463.694 0 1.253-.194.567-.202.977-.597.41-.402.634-1l1.7.478a3.8 3.8 0 0 1-.902 1.522q-.635.648-1.566 1.014-.933.358-2.096.358M828.469 63.546v1.49h-5.936v-1.49zm-4.206-2.745h1.76V71.72q0 .746.217 1.118.224.366.566.493.35.12.739.119.29 0 .477-.03l.298-.06.358 1.581q-.179.068-.5.135-.32.075-.812.074a3.5 3.5 0 0 1-1.462-.32 2.9 2.9 0 0 1-1.178-.977q-.463-.657-.463-1.656zM820.264 59.727V75h-1.76V59.727zM811.084 75.239q-1.654 0-2.856-.731-1.192-.738-1.842-2.058-.64-1.328-.641-3.088 0-1.76.641-3.102.649-1.35 1.805-2.103 1.163-.76 2.714-.76.895 0 1.768.298a4.4 4.4 0 0 1 1.588.97q.716.662 1.141 1.759.425 1.095.425 2.7v.745h-8.829v-1.521h7.039q0-.97-.387-1.73a2.93 2.93 0 0 0-1.089-1.2q-.7-.44-1.656-.44-1.051 0-1.819.521-.761.514-1.171 1.343a3.95 3.95 0 0 0-.41 1.775v1.014q0 1.297.447 2.2.456.894 1.261 1.364.804.463 1.871.463.694 0 1.253-.194.567-.202.977-.597.41-.402.634-1l1.7.478a3.8 3.8 0 0 1-.902 1.522q-.635.648-1.566 1.014-.932.358-2.096.358M804.369 63.546 800.133 75h-1.79l-4.236-11.455h1.91l3.161 9.128h.12l3.162-9.128zM790.202 63.546a2.34 2.34 0 0 0-1.089-1.76q-.955-.627-2.342-.627-1.014 0-1.775.328-.753.329-1.178.903a2.17 2.17 0 0 0-.417 1.305q0 .611.29 1.051.299.433.761.724.462.282.969.47.508.179.933.29l1.551.418q.596.156 1.327.432.738.276 1.41.754.678.469 1.118 1.208.44.738.44 1.812 0 1.237-.649 2.237-.641 1-1.879 1.588-1.23.59-2.99.59-1.64 0-2.842-.53-1.192-.53-1.879-1.477-.678-.945-.768-2.2h1.909q.075.866.582 1.432.514.56 1.297.836a5.3 5.3 0 0 0 1.701.268q1.06 0 1.901-.343.843-.35 1.335-.97.492-.626.492-1.461 0-.76-.425-1.238-.425-.477-1.118-.776a12 12 0 0 0-1.499-.522l-1.879-.537q-1.79-.514-2.834-1.469-1.044-.954-1.044-2.498 0-1.282.693-2.237.702-.962 1.88-1.492 1.185-.536 2.647-.536 1.476 0 2.625.529 1.148.522 1.82 1.432.678.91.715 2.066zM1118.82 96.25c-1 0-1.89-.253-2.65-.758q-1.155-.765-1.8-2.156c-.43-.932-.65-2.034-.65-3.305 0-1.26.22-2.354.65-3.281s1.03-1.643 1.81-2.148q1.155-.758 2.67-.758c.78 0 1.4.13 1.85.39q.69.383 1.05.875.36.485.57.797h.15V80h1.85v16h-1.78v-1.844h-.22c-.14.219-.33.495-.58.828-.25.329-.61.623-1.07.883-.47.255-1.08.383-1.85.383m.25-1.656c.74 0 1.36-.193 1.87-.578q.765-.586 1.17-1.618.39-1.038.39-2.398 0-1.344-.39-2.352c-.26-.677-.64-1.203-1.15-1.578q-.765-.57-1.89-.57c-.78 0-1.44.2-1.96.602-.51.395-.9.934-1.16 1.617-.26.677-.38 1.437-.38 2.281q0 1.281.39 2.328.39 1.04 1.17 1.656c.52.407 1.17.61 1.94.61M1109.06 96V84h1.85v12zm.94-14q-.54 0-.93-.367a1.2 1.2 0 0 1-.38-.883c0-.344.13-.638.38-.883q.39-.367.93-.367c.36 0 .67.122.92.367q.39.368.39.883 0 .516-.39.883a1.27 1.27 0 0 1-.92.367M1105.69 80v16h-1.85V80zM1095.59 96.25q-1.62 0-2.85-.773c-.81-.516-1.45-1.237-1.91-2.165-.45-.927-.68-2.01-.68-3.25 0-1.25.23-2.34.68-3.273.46-.932 1.1-1.656 1.91-2.172q1.23-.773 2.85-.773c1.09 0 2.03.258 2.85.773.81.516 1.45 1.24 1.9 2.172q.69 1.398.69 3.273 0 1.86-.69 3.25c-.45.928-1.09 1.649-1.9 2.165-.82.515-1.76.773-2.85.773m0-1.656c.82 0 1.5-.211 2.03-.633a3.7 3.7 0 0 0 1.18-1.664q.39-1.032.39-2.234 0-1.204-.39-2.243a3.75 3.75 0 0 0-1.18-1.68c-.53-.427-1.21-.64-2.03-.64s-1.5.213-2.03.64-.92.988-1.18 1.68c-.25.693-.38 1.44-.38 2.243s.13 1.546.38 2.234c.26.687.65 1.242 1.18 1.664s1.21.633 2.03.633M1085.69 84q-.15-1.187-1.14-1.844-1.005-.656-2.46-.656-1.05 0-1.86.344-.78.343-1.23.945c-.29.401-.44.857-.44 1.367 0 .427.1.794.31 1.102.21.302.47.555.79.758q.495.296 1.02.492c.35.125.68.226.98.305l1.62.437c.42.11.88.26 1.39.453a6.4 6.4 0 0 1 1.48.79q.705.491 1.17 1.265c.31.515.46 1.148.46 1.898 0 .865-.23 1.646-.68 2.344s-1.1 1.253-1.97 1.664c-.86.412-1.9.617-3.13.617-1.15 0-2.14-.185-2.98-.554-.83-.37-1.49-.886-1.97-1.547-.47-.662-.74-1.43-.8-2.305h2c.05.604.26 1.104.61 1.5.36.39.81.682 1.36.875.55.188 1.14.281 1.78.281.74 0 1.4-.12 1.99-.36.59-.244 1.06-.583 1.4-1.015.34-.437.52-.948.52-1.531q0-.796-.45-1.297t-1.17-.812c-.49-.209-1.01-.391-1.57-.547l-1.97-.563q-1.875-.54-2.97-1.539c-.73-.666-1.09-1.539-1.09-2.617q0-1.344.72-2.344c.49-.672 1.15-1.193 1.97-1.562.83-.375 1.76-.563 2.78-.563 1.03 0 1.94.185 2.75.555.8.365 1.43.865 1.9 1.5q.72.953.75 2.164zM1031.86 60.002c-1.55.021-3.09.197-4.61.522l-1.17.388c-2.34.784-4.27 1.953-5.42 3.486l-.78 1.17-5.26 9.124c1.11-1.001 2.52-1.806 4.25-2.313l1.59-.398a22.6 22.6 0 0 1 4.59-.533c7.53-.137 15.58 2.97 21.76 6.104 5.98 3.039 10.04 6 10.3 6.18l6.89-11.497c-.21-.156-4.29-3.13-10.31-6.171-6.18-3.12-14.26-6.197-21.83-6.06zm-6.81 11.84a22.3 22.3 0 0 0-4.5.525l-1.57.39c-3.3.972-5.41 3-6.28 5.452-.86 2.451-.48 5.34 1.26 8.058.85 1.112 1.93 2.103 3.14 2.967l16.75-5.408c2.62-.775 5.38-.943 8.07-.489s5.24 1.517 7.46 3.109l7.35-2.49c-.44-.321-4.3-3.104-10.1-6.052-6.15-3.12-14.15-6.197-21.58-6.062m14.04 11.63c-1.73-.011-3.46.235-5.12.732l-24.38 7.87-7.59 13.306 23.96-7.738a17.94 17.94 0 0 1 19.14 5.984c1.8 2.335 2.3 4.932 1.71 7.265l6.64-11.974c1.54-2.693 1.16-5.755-.78-8.869a17.5 17.5 0 0 0-6.05-4.823 17.5 17.5 0 0 0-7.53-1.753m-7.83 13.813c-1.75-.017-3.5.23-5.18.732l-24.06 7.771c.45.339 5.22 3.874 12.11 7.159 7.22 3.445 16.45 6.38 24.46 4.427l1.17-.393h.01c3.3-.972 5.51-3.005 6.42-5.405.91-2.405.54-5.183-1.4-7.702a17.518 17.518 0 0 0-13.53-6.59"/>
    <g clip-path="url(#c)">
      <path fill="#000" d="M935.107 548.114A28.85 28.85 0 0 1 919 553c-16.006 0-29-12.994-29-29s12.994-29 29-29 29 12.994 29 29c0 8.659-3.804 16.436-9.829 21.752L912.279 512.4H907.4v23.19h3.903v-18.233zm-8.052-20.622 3.866 4.981V512.4h-3.866z"/>
    </g>
    <path fill="#1a1614" d="M1007.83 520v1.562h-6.21V520zm-4.4-2.875h1.84v11.437c0 .521.08.912.23 1.172.15.256.35.427.59.516.25.083.5.125.78.125.2 0 .37-.01.5-.031l.31-.063.37 1.657c-.12.046-.3.093-.52.14-.22.052-.51.078-.85.078q-.78 0-1.53-.336c-.5-.224-.91-.565-1.24-1.023q-.48-.687-.48-1.735zM992.109 520l2.875 4.906 2.875-4.906h2.125l-3.875 6 3.875 6h-2.125l-2.875-4.656-2.875 4.656h-2.125l3.813-6-3.813-6zM983.283 532.25q-1.734 0-2.992-.766-1.25-.773-1.93-2.156-.672-1.39-.672-3.234t.672-3.25q.68-1.414 1.891-2.203 1.218-.798 2.844-.797.938 0 1.851.312.915.313 1.664 1.016.75.695 1.196 1.844.445 1.148.445 2.828v.781h-9.25v-1.594h7.375q0-1.015-.406-1.812a3.06 3.06 0 0 0-1.141-1.258q-.735-.46-1.734-.461-1.102 0-1.907.547-.797.539-1.226 1.406a4.1 4.1 0 0 0-.43 1.859v1.063q0 1.359.469 2.305.477.937 1.32 1.429.844.485 1.961.485.727 0 1.313-.203a2.8 2.8 0 0 0 1.023-.625q.43-.423.664-1.047l1.781.5a3.94 3.94 0 0 1-.945 1.593 4.6 4.6 0 0 1-1.64 1.063q-.977.375-2.196.375M974.625 516v16h-1.875l-8.719-12.562h-.156V532h-1.937v-16h1.874l8.75 12.594h.157V516zM388.947 520.545v1.492h-5.936v-1.492zm-4.206-2.744h1.76v10.918q0 .746.216 1.118.224.366.567.493.35.119.738.119.291 0 .477-.03l.299-.06.358 1.581a4 4 0 0 1-.5.135 3.7 3.7 0 0 1-.813.074q-.745 0-1.462-.321a2.9 2.9 0 0 1-1.178-.976q-.462-.657-.462-1.656zM373.937 520.545l2.744 4.684 2.744-4.684h2.029l-3.699 5.728 3.699 5.727h-2.029l-2.744-4.445-2.744 4.445h-2.029l3.64-5.727-3.64-5.728zM367.641 527.317v-6.772h1.76V532h-1.76v-1.939h-.119q-.403.872-1.253 1.484-.85.604-2.148.604-1.074 0-1.909-.47-.835-.477-1.312-1.432-.478-.962-.478-2.423v-7.279h1.76v7.16q0 1.253.701 1.998.709.746 1.805.746.656 0 1.335-.336.686-.335 1.148-1.029.47-.693.47-1.767M356.96 516.727V532h-1.79l-8.322-11.991h-.149V532h-1.85v-15.273h1.79l8.352 12.022h.15v-12.022z"/>
    <path fill="#000" d="M307.538 542.921H329.1c.684 0 1.357-.174 1.95-.507a3.83 3.83 0 0 0 1.428-1.385 3.7 3.7 0 0 0 .522-1.892 3.7 3.7 0 0 0-.524-1.892l-14.48-24.327a3.84 3.84 0 0 0-1.427-1.385 3.997 3.997 0 0 0-3.901 0 3.84 3.84 0 0 0-1.427 1.385l-3.703 6.225-7.238-12.172a3.84 3.84 0 0 0-1.429-1.385 4 4 0 0 0-3.901 0 3.84 3.84 0 0 0-1.428 1.385l-18.018 30.274a3.7 3.7 0 0 0-.524 1.892 3.7 3.7 0 0 0 .522 1.892 3.83 3.83 0 0 0 1.428 1.385 4 4 0 0 0 1.951.507h13.534c5.362 0 9.317-2.284 12.038-6.742l6.606-11.098 3.539-5.938 10.619 17.839h-14.158zm-15.324-5.945-9.445-.002 14.158-23.785 7.065 11.892-4.73 7.949c-1.808 2.892-3.86 3.946-7.048 3.946"/>
    <path fill="#1a1614" d="M681.575 567.091a2.23 2.23 0 0 0-1.037-1.676q-.909-.597-2.23-.597-.966 0-1.69.313-.717.313-1.122.859a2.06 2.06 0 0 0-.398 1.243q0 .582.277 1.001.285.413.725.689.44.27.923.448.483.17.888.277l1.477.398q.568.149 1.264.411.703.264 1.342.718.646.447 1.066 1.15.419.703.419 1.726a3.83 3.83 0 0 1-.618 2.131q-.61.952-1.79 1.513-1.171.561-2.848.561-1.563 0-2.706-.505-1.136-.504-1.79-1.406-.645-.901-.731-2.095h1.818q.07.824.554 1.364.49.533 1.236.795a5 5 0 0 0 1.619.256q1.008 0 1.811-.327.802-.333 1.272-.923.468-.597.468-1.392 0-.724-.405-1.179-.404-.454-1.065-.739-.66-.284-1.427-.497l-1.79-.511q-1.705-.49-2.699-1.4t-.994-2.379q0-1.221.66-2.13.668-.917 1.79-1.421 1.13-.511 2.521-.511 1.407 0 2.5.504 1.094.497 1.733 1.364.646.866.682 1.967zM668.33 563.455h1.761v10.397q0 1.392-.511 2.365a3.5 3.5 0 0 1-1.442 1.478q-.93.504-2.195.504-1.193 0-2.123-.433a3.5 3.5 0 0 1-1.463-1.25q-.533-.81-.533-1.925h1.733q0 .618.305 1.079.313.455.853.711.539.255 1.228.255.76 0 1.293-.319.533-.32.81-.938.284-.624.284-1.527z"/>
    <g clip-path="url(#d)">
      <path fill="#000" d="M595 542h58v58h-58zm53.249 44.167c-.423-2.646-2.146-4.87-7.257-6.943-1.779-.834-3.756-1.414-4.343-2.755-.22-.798-.254-1.233-.111-1.704.362-1.561 2.211-2.03 3.661-1.595.942.29 1.812 1.015 2.359 2.175 2.498-1.633 2.498-1.633 4.241-2.719-.653-1.015-.976-1.452-1.416-1.885-1.523-1.703-3.55-2.573-6.849-2.498l-1.704.215c-1.634.398-3.19 1.268-4.132 2.428-2.755 3.12-1.96 8.558 1.375 10.805 3.298 2.465 8.122 3.007 8.738 5.329.58 2.828-2.102 3.734-4.751 3.408-1.96-.435-3.045-1.417-4.241-3.229l-4.423 2.54c.508 1.16 1.088 1.665 1.958 2.68 4.205 4.244 14.717 4.026 16.605-2.426.07-.218.58-1.704.179-3.988zm-21.709-17.509h-5.433c0 4.684-.021 9.338-.021 14.029 0 2.977.152 5.711-.334 6.552-.797 1.665-2.852 1.452-3.784 1.16-.957-.474-1.443-1.127-2.006-2.067-.153-.253-.266-.473-.307-.473l-4.411 2.718c.737 1.523 1.813 2.833 3.2 3.667 2.066 1.232 4.843 1.631 7.75.978 1.893-.546 3.524-1.67 4.377-3.41 1.232-2.247.971-5.002.959-8.086.029-4.964 0-9.93 0-14.932z"/>
    </g>
    <path fill="#7d7468" d="M199.174 261.65v-1.2h2.325v-11.7h-2.325v-1.2h3.675v14.1zM184.336 260q-1.065 0-1.665-.57-.585-.57-.585-1.605v-4.845h-2.326v-1.23h2.326v-2.325h1.35v2.325h3.3v1.23h-3.3v4.845q0 .945.9.945h2.25V260zM171.321 262.7v-10.95h1.35v1.575h.27l-.27.315q0-.945.615-1.485.63-.555 1.65-.555 1.245 0 1.98.825.75.81.75 2.235v2.415q0 .945-.345 1.635-.33.69-.945 1.065-.6.375-1.44.375-1.005 0-1.635-.555t-.63-1.485l.27.315h-.3l.03 1.875v2.4zm3.165-3.72q.855 0 1.335-.51.495-.51.495-1.47v-2.25q0-.96-.495-1.47-.48-.51-1.335-.51-.825 0-1.32.525t-.495 1.455V257q0 .93.495 1.455t1.32.525M162.222 260v-1.23h2.925v-5.79h-2.55v-1.23h3.9v7.02h2.775V260zm3.45-9.735q-.495 0-.78-.255t-.285-.69q0-.45.285-.705.285-.27.78-.27t.78.27q.285.255.285.705 0 .435-.285.69t-.78.255M153.618 260v-8.25h1.32v1.575h.315l-.435.975q0-1.335.57-2.01.585-.69 1.725-.69 1.305 0 2.07.825.78.81.78 2.205v.495h-1.35v-.375q0-.975-.48-1.485-.465-.525-1.335-.525-.855 0-1.35.525-.48.525-.48 1.485V260zM147.519 260.15q-.99 0-1.74-.375-.735-.375-1.14-1.08-.405-.72-.405-1.695v-2.25q0-.99.405-1.695t1.14-1.08q.75-.375 1.74-.375 1.425 0 2.295.765t.915 2.085h-1.35q-.045-.795-.54-1.215-.48-.435-1.32-.435-.885 0-1.41.51-.525.495-.525 1.425V257q0 .93.525 1.44t1.41.51q.84 0 1.32-.435.495-.435.54-1.215h1.35q-.045 1.32-.915 2.085t-2.295.765M138.21 260.12q-.84 0-1.47-.255-.615-.27-.99-.75-.36-.48-.435-1.14h1.35q.09.435.48.69.405.255 1.065.255h.63q.795 0 1.185-.315.39-.33.39-.87 0-.525-.36-.825-.345-.315-1.035-.42l-1.11-.18q-1.215-.21-1.815-.75-.585-.555-.585-1.605 0-1.11.705-1.71.705-.615 2.115-.615h.57q1.185 0 1.905.555t.87 1.5h-1.35a.96.96 0 0 0-.45-.615q-.36-.24-.975-.24h-.57q-.765 0-1.125.285-.345.285-.345.855 0 .51.3.75t.945.345l1.11.18q1.335.21 1.935.78.615.57.615 1.65 0 1.14-.735 1.8-.72.645-2.19.645zM129.471 260.15q-.975 0-1.71-.39a2.8 2.8 0 0 1-1.125-1.095q-.39-.72-.39-1.665v-2.25q0-.96.39-1.665.405-.705 1.125-1.095.735-.39 1.71-.39t1.695.39a2.7 2.7 0 0 1 1.125 1.095q.405.705.405 1.665v1.455h-5.13V257q0 .975.495 1.5.495.51 1.41.51.78 0 1.26-.27.48-.285.585-.84h1.35q-.135 1.035-1.02 1.65-.87.6-2.175.6m1.905-4.845v-.555q0-.975-.495-1.5-.48-.525-1.41-.525-.915 0-1.41.525t-.495 1.5v.435h3.915zM117.356 262.7v-10.95h1.35v1.575h.27l-.27.315q0-.945.615-1.485.63-.555 1.65-.555 1.245 0 1.98.825.75.81.75 2.235v2.415q0 .945-.345 1.635-.33.69-.945 1.065-.6.375-1.44.375-1.005 0-1.635-.555t-.63-1.485l.27.315h-.3l.03 1.875v2.4zm3.165-3.72q.855 0 1.335-.51.495-.51.495-1.47v-2.25q0-.96-.495-1.47-.48-.51-1.335-.51-.825 0-1.32.525t-.495 1.455V257q0 .93.495 1.455t1.32.525M109.652 262.7l1.215-3.21-3.06-7.74h1.5l1.92 5.1q.105.255.195.615l.15.585.15-.585q.09-.36.18-.615l1.8-5.1h1.455l-4.065 10.95zM103.388 260q-1.065 0-1.665-.57-.585-.57-.585-1.605v-4.845h-2.325v-1.23h2.325v-2.325h1.35v2.325h3.3v1.23h-3.3v4.845q0 .945.9.945h2.25V260zM83.075 261.65v-14.1h3.675v1.2h-2.325v11.7h2.325v1.2zM156.215 331.65v-1.2h2.325v-11.7h-2.325v-1.2h3.675v14.1zM137.251 330v-1.23h2.925v-5.79h-2.55v-1.23h3.9v7.02h2.775V330zm3.45-9.735q-.495 0-.78-.255t-.285-.69q0-.45.285-.705.285-.27.78-.27t.78.27q.285.255.285.705 0 .435-.285.69t-.78.255M128.362 332.7v-10.95h1.35v1.575h.27l-.27.315q0-.945.615-1.485.63-.555 1.65-.555 1.245 0 1.98.825.75.81.75 2.235v2.415q0 .945-.345 1.635-.33.69-.945 1.065-.6.375-1.44.375-1.005 0-1.635-.555t-.63-1.485l.27.315h-.3l.03 1.875v2.4zm3.165-3.72q.855 0 1.335-.51.495-.51.495-1.47v-2.25q0-.96-.495-1.47-.48-.51-1.335-.51-.825 0-1.32.525t-.495 1.455V327q0 .93.495 1.455t1.32.525M121.768 330.15q-1.305 0-2.055-.66-.75-.675-.75-1.815 0-1.155.75-1.815t2.025-.66h2.55v-.825q0-.765-.465-1.17-.45-.42-1.29-.42-.735 0-1.23.315-.495.3-.57.825h-1.35a2.38 2.38 0 0 1 1.005-1.695q.87-.63 2.175-.63 1.425 0 2.25.735t.825 1.995V330h-1.32v-1.575h-.225l.225-.225q0 .9-.705 1.425-.69.525-1.845.525m.33-1.065q.96 0 1.575-.48t.615-1.23v-1.17h-2.52q-.675 0-1.065.375t-.39 1.02q0 .69.465 1.095.48.39 1.32.39M103.075 331.65v-14.1h3.675v1.2h-2.325v11.7h2.325v1.2zM146.215 401.65v-1.2h2.325v-11.7h-2.325v-1.2h3.675v14.1zM127.251 400v-1.23h2.925v-5.79h-2.55v-1.23h3.9v7.02h2.775V400zm3.45-9.735q-.495 0-.78-.255t-.285-.69q0-.45.285-.705.285-.27.78-.27t.78.27q.285.255.285.705 0 .435-.285.69t-.78.255M122.607 400q-.72 0-1.26-.285t-.84-.81-.3-1.23v-7.395h-2.775v-1.23h4.125v8.625q0 .51.285.81.285.285.765.285h2.625V400zM112.548 400.15q-.99 0-1.74-.375-.735-.375-1.14-1.08-.405-.72-.405-1.695v-2.25q0-.99.405-1.695t1.14-1.08q.75-.375 1.74-.375 1.425 0 2.295.765t.915 2.085h-1.35q-.045-.795-.54-1.215-.48-.435-1.32-.435-.885 0-1.41.51-.525.495-.525 1.425V397q0 .93.525 1.44t1.41.51q.84 0 1.32-.435.495-.435.54-1.215h1.35q-.045 1.32-.915 2.085t-2.295.765M93.075 401.65v-14.1h3.675v1.2h-2.325v11.7h2.325v1.2zM1190.18 286.65v-1.2h2.32v-11.7h-2.32v-1.2h3.67v14.1zM1174.44 285.15q-.975 0-1.71-.39a2.8 2.8 0 0 1-1.12-1.095q-.39-.72-.39-1.665v-2.25q0-.96.39-1.665c.27-.47.64-.835 1.12-1.095q.735-.39 1.71-.39c.65 0 1.22.13 1.7.39.49.26.86.625 1.12 1.095.27.47.41 1.025.41 1.665v1.455h-5.13V282c0 .65.16 1.15.49 1.5q.495.51 1.41.51.78 0 1.26-.27c.32-.19.52-.47.59-.84h1.35q-.135 1.035-1.02 1.65c-.58.4-1.31.6-2.18.6m1.91-4.845v-.555c0-.65-.17-1.15-.5-1.5q-.48-.525-1.41-.525-.915 0-1.41.525c-.33.35-.49.85-.49 1.5v.435h3.91zM1164.25 285v-6.195h-2.4v-1.23h2.4v-1.425c0-.65.2-1.16.61-1.53.41-.38.98-.57 1.7-.57h2.41v1.23h-2.41q-.465 0-.72.225-.24.21-.24.645v1.425h3.37v1.23h-3.37V285zM1155.73 285.15c-.87 0-1.55-.22-2.05-.66q-.75-.675-.75-1.815 0-1.155.75-1.815c.5-.44 1.17-.66 2.02-.66h2.55v-.825c0-.51-.15-.9-.46-1.17q-.45-.42-1.29-.42-.735 0-1.23.315-.495.3-.57.825h-1.35c.09-.71.42-1.275 1-1.695s1.31-.63 2.18-.63q1.425 0 2.25.735c.55.49.82 1.155.82 1.995V285h-1.32v-1.575h-.22l.22-.225c0 .6-.23 1.075-.7 1.425-.46.35-1.08.525-1.85.525m.33-1.065c.64 0 1.17-.16 1.58-.48s.61-.73.61-1.23v-1.17h-2.52c-.45 0-.8.125-1.06.375q-.39.375-.39 1.02c0 .46.15.825.46 1.095q.48.39 1.32.39M1147.2 285.12q-.84 0-1.47-.255-.615-.27-.99-.75c-.24-.32-.38-.7-.43-1.14h1.35q.09.435.48.69c.27.17.62.255 1.06.255h.63c.53 0 .93-.105 1.19-.315q.39-.33.39-.87 0-.525-.36-.825c-.23-.21-.58-.35-1.04-.42l-1.11-.18c-.81-.14-1.41-.39-1.81-.75-.39-.37-.59-.905-.59-1.605 0-.74.24-1.31.71-1.71.47-.41 1.17-.615 2.11-.615h.57c.79 0 1.43.185 1.91.555q.72.555.87 1.5h-1.35a.96.96 0 0 0-.45-.615c-.24-.16-.57-.24-.98-.24h-.57c-.51 0-.88.095-1.12.285-.23.19-.35.475-.35.855q0 .51.3.75c.2.16.52.275.95.345l1.11.18c.89.14 1.53.4 1.93.78.41.38.62.93.62 1.65 0 .76-.25 1.36-.74 1.8q-.72.645-2.19.645zM1136.06 280.65v-1.2h4.8v1.2zM1129.47 285.15q-.975 0-1.71-.39a2.8 2.8 0 0 1-1.12-1.095q-.39-.72-.39-1.665v-2.25q0-.96.39-1.665c.27-.47.64-.835 1.12-1.095q.735-.39 1.71-.39c.65 0 1.22.13 1.7.39.49.26.86.625 1.12 1.095.27.47.41 1.025.41 1.665v1.455h-5.13V282c0 .65.16 1.15.49 1.5q.495.51 1.41.51.78 0 1.26-.27c.32-.19.52-.47.59-.84h1.35q-.135 1.035-1.02 1.65c-.58.4-1.31.6-2.18.6m1.91-4.845v-.555c0-.65-.17-1.15-.5-1.5q-.48-.525-1.41-.525-.915 0-1.41.525c-.33.35-.49.85-.49 1.5v.435h3.91zM1117.36 287.7v-10.95h1.35v1.575h.27l-.27.315c0-.63.2-1.125.61-1.485q.63-.555 1.65-.555 1.245 0 1.98.825.75.81.75 2.235v2.415c0 .63-.11 1.175-.34 1.635-.22.46-.54.815-.95 1.065q-.6.375-1.44.375c-.67 0-1.21-.185-1.63-.555q-.63-.555-.63-1.485l.27.315h-.3l.03 1.875v2.4zm3.16-3.72c.57 0 1.02-.17 1.34-.51.33-.34.49-.83.49-1.47v-2.25c0-.64-.16-1.13-.49-1.47-.32-.34-.77-.51-1.34-.51q-.825 0-1.32.525c-.33.35-.49.835-.49 1.455V282c0 .62.16 1.105.49 1.455q.495.525 1.32.525M1109.65 287.7l1.22-3.21-3.06-7.74h1.5l1.92 5.1c.07.17.13.375.19.615l.15.585.15-.585q.09-.36.18-.615l1.8-5.1h1.46l-4.07 10.95zM1103.39 285c-.71 0-1.27-.19-1.67-.57-.39-.38-.58-.915-.58-1.605v-4.845h-2.33v-1.23h2.33v-2.325h1.35v2.325h3.3v1.23h-3.3v4.845q0 .945.9.945h2.25V285zM1083.07 286.65v-14.1h3.68v1.2h-2.33v11.7h2.33v1.2zM1176.21 356.65v-1.2h2.33v-11.7h-2.33v-1.2h3.68v14.1zM1160.46 355.15q-1.425 0-2.28-.84c-.57-.57-.85-1.34-.85-2.31v-5.25h1.35V352q0 .93.48 1.455c.32.34.75.51 1.3.51q.84 0 1.32-.51c.33-.35.5-.835.5-1.455v-5.25h1.35V352q0 1.455-.87 2.31c-.58.56-1.35.84-2.3.84M1151.54 355.15q-.99 0-1.74-.375-.735-.375-1.14-1.08c-.27-.48-.4-1.045-.4-1.695v-2.25c0-.66.13-1.225.4-1.695q.405-.705 1.14-1.08.75-.375 1.74-.375c.95 0 1.72.255 2.3.765s.88 1.205.91 2.085h-1.35q-.045-.795-.54-1.215-.48-.435-1.32-.435-.885 0-1.41.51c-.35.33-.52.805-.52 1.425V352c0 .62.17 1.1.52 1.44q.525.51 1.41.51.84 0 1.32-.435.495-.435.54-1.215h1.35c-.03.88-.33 1.575-.91 2.085s-1.35.765-2.3.765M1139.26 355v-1.23h2.93v-5.79h-2.55v-1.23h3.9v7.02h2.77V355zm3.45-9.735q-.495 0-.78-.255c-.19-.17-.28-.4-.28-.69 0-.3.09-.535.28-.705q.285-.27.78-.27t.78.27c.19.17.29.405.29.705 0 .29-.1.52-.29.69q-.285.255-.78.255M1123.07 356.65v-14.1h3.68v1.2h-2.33v11.7h2.33v1.2zM1170.18 426.65v-1.2h2.32v-11.7h-2.32v-1.2h3.67v14.1zM1154.19 425.12q-.84 0-1.47-.255-.615-.27-.99-.75c-.24-.32-.39-.7-.44-1.14h1.35q.09.435.48.69c.27.17.63.255 1.07.255h.63c.53 0 .92-.105 1.18-.315q.39-.33.39-.87 0-.525-.36-.825c-.23-.21-.57-.35-1.03-.42l-1.11-.18c-.81-.14-1.42-.39-1.82-.75-.39-.37-.58-.905-.58-1.605 0-.74.23-1.31.7-1.71.47-.41 1.18-.615 2.12-.615h.57c.79 0 1.42.185 1.9.555q.72.555.87 1.5h-1.35a.96.96 0 0 0-.45-.615c-.24-.16-.56-.24-.97-.24h-.57c-.51 0-.89.095-1.13.285-.23.19-.34.475-.34.855q0 .51.3.75c.2.16.51.275.94.345l1.11.18c.89.14 1.54.4 1.94.78.41.38.61.93.61 1.65 0 .76-.24 1.36-.73 1.8q-.72.645-2.19.645zM1142.33 427.7v-10.95h1.35v1.575h.27l-.27.315c0-.63.2-1.125.61-1.485q.63-.555 1.65-.555 1.245 0 1.98.825.75.81.75 2.235v2.415c0 .63-.11 1.175-.34 1.635-.22.46-.54.815-.95 1.065q-.6.375-1.44.375c-.67 0-1.21-.185-1.63-.555q-.63-.555-.63-1.485l.27.315h-.3l.03 1.875v2.4zm3.16-3.72c.57 0 1.02-.17 1.34-.51.33-.34.49-.83.49-1.47v-2.25c0-.64-.16-1.13-.49-1.47-.32-.34-.77-.51-1.34-.51q-.825 0-1.32.525c-.33.35-.49.835-.49 1.455V422c0 .62.16 1.105.49 1.455q.495.525 1.32.525M1136.45 425.15q-.975 0-1.71-.39a2.8 2.8 0 0 1-1.12-1.095q-.39-.72-.39-1.665v-2.25q0-.96.39-1.665c.27-.47.64-.835 1.12-1.095q.735-.39 1.71-.39c.65 0 1.22.13 1.7.39.49.26.86.625 1.12 1.095.27.47.41 1.025.41 1.665v1.455h-5.13V422c0 .65.16 1.15.49 1.5q.495.51 1.41.51.78 0 1.26-.27c.32-.19.52-.47.59-.84h1.35q-.135 1.035-1.02 1.65c-.58.4-1.31.6-2.18.6m1.91-4.845v-.555c0-.65-.17-1.15-.5-1.5q-.48-.525-1.41-.525-.915 0-1.41.525c-.33.35-.49.85-.49 1.5v.435h3.91zM1126.98 425.15c-.82 0-1.49-.275-2-.825q-.75-.825-.75-2.235v-2.415q0-1.425.75-2.25c.5-.55 1.17-.825 2-.825.68 0 1.22.185 1.63.555s.62.865.62 1.485l-.27-.315h.3l-.03-1.875v-2.4h1.35V425h-1.35v-1.575h-.27l.27-.315c0 .63-.21 1.13-.62 1.5-.41.36-.95.54-1.63.54m.45-1.17q.84 0 1.32-.525t.48-1.455v-2.25q0-.93-.48-1.455t-1.32-.525q-.855 0-1.35.51c-.33.34-.5.83-.5 1.47V422c0 .64.17 1.13.5 1.47q.495.51 1.35.51M1116.06 420.65v-1.2h4.8v1.2zM1109.47 425.12q-.99 0-1.71-.375a2.7 2.7 0 0 1-1.12-1.08q-.39-.72-.39-1.695v-2.19q0-.99.39-1.695c.27-.47.64-.83 1.12-1.08q.72-.375 1.71-.375t1.71.375 1.11 1.08c.27.47.41 1.03.41 1.68v2.205c0 .65-.14 1.215-.41 1.695q-.39.705-1.11 1.08t-1.71.375m0-1.2q.885 0 1.38-.495c.33-.33.5-.815.5-1.455v-2.19c0-.64-.17-1.125-.5-1.455q-.495-.495-1.38-.495-.87 0-1.38.495c-.33.33-.49.815-.49 1.455v2.19c0 .64.16 1.125.49 1.455q.51.495 1.38.495M1097.64 425v-8.25h1.32v1.575h.32l-.44.975q0-1.335.57-2.01c.39-.46.97-.69 1.73-.69q1.305 0 2.07.825.78.81.78 2.205v.495h-1.35v-.375q0-.975-.48-1.485c-.31-.35-.76-.525-1.34-.525q-.855 0-1.35.525-.48.525-.48 1.485V425zM1091.48 425.15q-.975 0-1.71-.39a2.8 2.8 0 0 1-1.12-1.095q-.39-.72-.39-1.665v-2.25q0-.96.39-1.665c.27-.47.64-.835 1.12-1.095q.735-.39 1.71-.39c.65 0 1.22.13 1.7.39.49.26.86.625 1.12 1.095.27.47.41 1.025.41 1.665v1.455h-5.13V422c0 .65.16 1.15.49 1.5q.495.51 1.41.51.78 0 1.26-.27c.32-.19.52-.47.59-.84h1.35q-.135 1.035-1.02 1.65c-.58.4-1.31.6-2.18.6m1.91-4.845v-.555c0-.65-.17-1.15-.5-1.5q-.48-.525-1.41-.525-.915 0-1.41.525c-.33.35-.49.85-.49 1.5v.435h3.91zM1079.34 425v-1.35l4.62-5.67h-4.5v-1.23h6.01v1.35l-4.71 5.67h4.88V425zM1063.07 426.65v-14.1h3.68v1.2h-2.33v11.7h2.33v1.2zM1196.16 216.65v-1.2h2.32v-11.7h-2.32v-1.2h3.67v14.1zM1177.3 215v-8.25h1.35v1.575h.28l-.28.315c0-.65.19-1.15.58-1.5q.585-.54 1.62-.54 1.245 0 1.98.765c.49.51.74 1.205.74 2.085V215h-1.35v-5.4q0-.885-.48-1.35c-.31-.32-.74-.48-1.28-.48-.56 0-1 .17-1.33.51q-.48.51-.48 1.47V215zM1171.42 215.12q-.99 0-1.71-.375a2.7 2.7 0 0 1-1.12-1.08q-.39-.72-.39-1.695v-2.19q0-.99.39-1.695c.27-.47.64-.83 1.12-1.08q.72-.375 1.71-.375t1.71.375 1.11 1.08c.27.47.41 1.03.41 1.68v2.205c0 .65-.14 1.215-.41 1.695q-.39.705-1.11 1.08t-1.71.375m0-1.2q.885 0 1.38-.495c.33-.33.5-.815.5-1.455v-2.19c0-.64-.17-1.125-.5-1.455q-.495-.495-1.38-.495-.87 0-1.38.495c-.33.33-.49.815-.49 1.455v2.19c0 .64.16 1.125.49 1.455q.51.495 1.38.495M1159.2 215v-1.23h2.93v-5.79h-2.55v-1.23h3.9v7.02h2.77V215zm3.45-9.735q-.495 0-.78-.255c-.19-.17-.28-.4-.28-.69 0-.3.09-.535.28-.705q.285-.27.78-.27t.78.27c.19.17.29.405.29.705 0 .29-.1.52-.29.69q-.285.255-.78.255M1154.34 215c-.71 0-1.27-.19-1.67-.57-.39-.38-.58-.915-.58-1.605v-4.845h-2.33v-1.23h2.33v-2.325h1.35v2.325h3.3v1.23h-3.3v4.845q0 .945.9.945h2.25V215zM1143.72 215.15c-.87 0-1.55-.22-2.05-.66q-.75-.675-.75-1.815 0-1.155.75-1.815c.5-.44 1.17-.66 2.02-.66h2.55v-.825c0-.51-.15-.9-.46-1.17q-.45-.42-1.29-.42-.735 0-1.23.315-.495.3-.57.825h-1.35c.09-.71.42-1.275 1-1.695s1.31-.63 2.18-.63q1.425 0 2.25.735c.55.49.82 1.155.82 1.995V215h-1.32v-1.575h-.22l.22-.225c0 .6-.23 1.075-.7 1.425-.46.35-1.08.525-1.85.525m.33-1.065c.64 0 1.17-.16 1.58-.48s.61-.73.61-1.23v-1.17h-2.52c-.45 0-.8.125-1.06.375q-.39.375-.39 1.02c0 .46.15.825.46 1.095q.48.39 1.32.39M1132.3 215v-1.35l4.62-5.67h-4.5v-1.23h6.01v1.35l-4.71 5.67h4.88V215zM1123.23 215v-1.23h2.92v-5.79h-2.55v-1.23h3.9v7.02h2.78V215zm3.45-9.735q-.495 0-.78-.255c-.19-.17-.29-.4-.29-.69 0-.3.1-.535.29-.705q.285-.27.78-.27t.78.27c.19.17.28.405.28.705 0 .29-.09.52-.28.69q-.285.255-.78.255M1118.58 215q-.72 0-1.26-.285t-.84-.81-.3-1.23v-7.395h-2.77v-1.23h4.12v8.625c0 .34.1.61.29.81.19.19.44.285.76.285h2.63V215zM1107.74 215.15c-.87 0-1.55-.22-2.05-.66q-.75-.675-.75-1.815 0-1.155.75-1.815c.5-.44 1.17-.66 2.02-.66h2.55v-.825c0-.51-.15-.9-.46-1.17q-.45-.42-1.29-.42-.735 0-1.23.315-.495.3-.57.825h-1.35c.09-.71.42-1.275 1-1.695s1.31-.63 2.18-.63q1.425 0 2.25.735c.55.49.82 1.155.82 1.995V215h-1.32v-1.575h-.22l.22-.225c0 .6-.23 1.075-.7 1.425-.46.35-1.08.525-1.85.525m.33-1.065c.64 0 1.17-.16 1.58-.48s.61-.73.61-1.23v-1.17h-2.52c-.45 0-.8.125-1.06.375q-.39.375-.39 1.02c0 .46.15.825.46 1.095q.48.39 1.32.39M1096.64 215v-8.25h1.32v1.575h.31l-.43.975q0-1.335.57-2.01c.39-.46.96-.69 1.72-.69q1.305 0 2.07.825.78.81.78 2.205v.495h-1.35v-.375q0-.975-.48-1.485c-.31-.35-.75-.525-1.33-.525q-.855 0-1.35.525-.48.525-.48 1.485V215zM1090.46 215.15q-1.425 0-2.28-.84c-.57-.57-.85-1.34-.85-2.31v-5.25h1.35V212q0 .93.48 1.455c.32.34.75.51 1.3.51q.84 0 1.32-.51c.33-.35.5-.835.5-1.455v-5.25h1.35V212q0 1.455-.87 2.31c-.58.56-1.35.84-2.3.84M1082.61 215q-.72 0-1.26-.285t-.84-.81-.3-1.23v-7.395h-2.78v-1.23h4.13v8.625c0 .34.09.61.28.81.19.19.45.285.77.285h2.62V215zM1069.37 217.7v-10.95h1.35v1.575h.27l-.27.315c0-.63.2-1.125.61-1.485q.63-.555 1.65-.555 1.245 0 1.98.825.75.81.75 2.235v2.415c0 .63-.11 1.175-.34 1.635-.22.46-.54.815-.95 1.065q-.6.375-1.44.375c-.67 0-1.21-.185-1.63-.555q-.63-.555-.63-1.485l.27.315h-.3l.03 1.875v2.4zm3.16-3.72c.57 0 1.02-.17 1.34-.51.33-.34.49-.83.49-1.47v-2.25c0-.64-.16-1.13-.49-1.47-.32-.34-.77-.51-1.34-.51q-.825 0-1.32.525c-.33.35-.49.835-.49 1.455V212c0 .62.16 1.105.49 1.455q.495.525 1.32.525M1053.07 216.65v-14.1h3.68v1.2h-2.33v11.7h2.33v1.2z"/>
    <path fill="#d97706" d="M384 218.5v3h-22.5V244h-3v-25.5zM921.5 218.5V244h-3v-22.5H896v-3zM361.5 396v22.5H384v3h-25.5V396zM921.5 396v25.5H896v-3h22.5V396zM817.097 368.76l36.92-97.76h9.88l-36.92 97.76z"/>
    <path fill="#1a1614" d="M760.662 357.32v-10.192h20.072v-36.816h-17.472V300.12h28.392v47.008h18.408v10.192zm24.44-67.08q-3.64 0-5.824-1.872-2.184-1.976-2.184-5.2 0-3.328 2.184-5.2 2.184-1.976 5.824-1.976t5.824 1.976q2.184 1.872 2.184 5.2 0 3.224-2.184 5.2-2.185 1.872-5.824 1.872M718.994 357.32l-18.928-57.2h11.44l11.752 36.608a71 71 0 0 1 1.976 6.552q.936 3.224 1.352 5.096.52-1.872 1.352-5.096a805 805 0 0 1 1.872-6.552l11.544-36.608h11.336l-18.928 57.2zM644.255 357.32v-57.2h9.36v7.28h2.08l-1.56 2.184q0-4.784 2.6-7.592 2.6-2.912 6.968-2.912 4.68 0 7.176 3.64 2.6 3.64 2.6 9.984l-2.496-5.304h3.952l-1.664 2.184q0-4.784 2.6-7.592 2.704-2.912 7.176-2.912 5.304 0 8.32 4.056 3.016 3.953 3.016 10.608v43.576h-9.984v-43.264q0-3.224-1.456-4.992-1.352-1.768-3.952-1.768t-4.056 1.768q-1.352 1.664-1.352 4.888v43.368h-8.424v-43.264q0-3.329-1.456-4.992-1.456-1.768-4.16-1.768-2.6 0-3.952 1.768-1.248 1.664-1.248 4.888v43.368zM612.259 358.256q-7.071 0-12.272-2.704-5.2-2.704-8.008-7.696t-2.808-11.752v-14.768q0-6.864 2.808-11.752 2.808-4.992 8.008-7.696t12.272-2.704 12.272 2.704 8.008 7.696q2.808 4.888 2.808 11.752v14.768q0 6.76-2.808 11.752t-8.008 7.696-12.272 2.704m0-9.88q5.72 0 8.84-3.12 3.12-3.224 3.12-9.152v-14.768q0-6.032-3.12-9.152t-8.84-3.12q-5.615 0-8.84 3.12-3.12 3.12-3.12 9.152v14.768q0 5.928 3.12 9.152 3.225 3.12 8.84 3.12M555.616 358.36q-7.072 0-12.48-2.6-5.304-2.704-8.216-7.696-2.808-5.095-2.808-11.856v-14.976q0-6.864 2.808-11.856 2.912-4.992 8.216-7.592 5.408-2.704 12.48-2.704 10.296 0 16.536 5.408t6.552 14.768h-11.232q-.312-4.888-3.432-7.592t-8.424-2.704q-5.72 0-9.048 3.224-3.328 3.12-3.328 8.944v15.08q0 5.825 3.328 9.048 3.329 3.224 9.048 3.224 5.304 0 8.424-2.704t3.432-7.592h11.232q-.312 9.36-6.552 14.768t-16.536 5.408M412.7 280.02h28.767v6.6H419.3v22.167h-6.6zM488.7 286.62h-22.166v-6.6H495.3v28.767h-6.6zM412.7 333.854h6.6v22.166h22.167v6.6H412.7zM488.7 333.854h6.6v28.766h-28.766v-6.6H488.7z"/>
    <path fill="#d97706" d="M463.5 311.82h-19v19h19z"/>
    <path fill="#7d7468" d="M760.885 396q-1.136 0-1.776-.608-.624-.608-.624-1.712v-5.168h-2.48V387.2h2.48v-2.48h1.44v2.48h3.52v1.312h-3.52v5.168q0 1.008.96 1.008h2.4V396zM747.003 398.88V387.2h1.44v1.68h.288l-.288.336q0-1.008.656-1.584.672-.592 1.76-.592 1.329 0 2.112.88.8.864.8 2.384v2.576q0 1.008-.368 1.744-.351.736-1.008 1.136-.639.4-1.536.4-1.072 0-1.744-.592t-.672-1.584l.288.336h-.32l.032 2v2.56zm3.376-3.968q.912 0 1.424-.544.528-.544.528-1.568v-2.4q0-1.024-.528-1.568-.512-.544-1.424-.544-.88 0-1.408.56t-.528 1.552v2.4q0 .992.528 1.552.529.56 1.408.56M737.297 396v-1.312h3.12v-6.176h-2.72V387.2h4.16v7.488h2.96V396zm3.68-10.384q-.528 0-.832-.272t-.304-.736q0-.48.304-.752.304-.288.832-.288.529 0 .832.288.304.272.304.752 0 .464-.304.736-.303.272-.832.272M728.12 396v-8.8h1.408v1.68h.336l-.464 1.04q0-1.424.608-2.144.624-.736 1.84-.736 1.392 0 2.208.88.832.864.832 2.352v.528h-1.44v-.4q0-1.04-.512-1.584-.497-.56-1.424-.56-.912 0-1.44.56-.512.56-.512 1.584v5.6zM721.614 396.16q-1.056 0-1.856-.4a2.9 2.9 0 0 1-1.216-1.152q-.432-.768-.432-1.808v-2.4q0-1.056.432-1.808a2.9 2.9 0 0 1 1.216-1.152q.8-.4 1.856-.4 1.52 0 2.448.816t.976 2.224h-1.44q-.048-.848-.576-1.296-.512-.464-1.408-.464-.944 0-1.504.544-.56.528-.56 1.52v2.416q0 .992.56 1.536t1.504.544q.896 0 1.408-.464.528-.464.576-1.296h1.44q-.048 1.408-.976 2.224t-2.448.816M712.02 396.16q-1.152 0-1.984-.384a2.9 2.9 0 0 1-1.264-1.104q-.448-.72-.464-1.712h1.44q0 .88.592 1.392.607.512 1.68.512 1.008 0 1.568-.496.576-.496.576-1.376 0-.704-.384-1.232-.368-.528-1.072-.736l-1.584-.496q-1.2-.368-1.856-1.232-.64-.864-.64-2.032 0-.943.416-1.632a2.9 2.9 0 0 1 1.2-1.088q.768-.4 1.808-.4 1.536 0 2.464.864.928.848.944 2.272h-1.44q0-.864-.528-1.344-.512-.496-1.456-.496-.928 0-1.456.448-.512.448-.512 1.248 0 .72.384 1.248t1.104.752l1.6.512q1.168.368 1.808 1.248t.64 2.064q0 .96-.448 1.68t-1.264 1.12q-.8.4-1.872.4M701.595 396.16q-1.392 0-2.192-.704-.8-.72-.8-1.936 0-1.232.8-1.936t2.16-.704h2.72V390q0-.816-.496-1.248-.48-.448-1.376-.448-.784 0-1.312.336-.528.32-.608.88h-1.44a2.54 2.54 0 0 1 1.072-1.808q.928-.672 2.32-.672 1.52 0 2.4.784t.88 2.128V396h-1.408v-1.68h-.24l.24-.24q0 .96-.752 1.52-.737.56-1.968.56m.352-1.136q1.023 0 1.68-.512.656-.512.656-1.312v-1.248h-2.688q-.72 0-1.136.4t-.416 1.088q0 .736.496 1.168.511.416 1.408.416M691.793 396l-2.944-8.8h1.472l1.952 5.92q.176.528.32 1.024.144.48.208.752l.224-.752q.144-.496.304-1.024l1.904-5.92h1.456l-2.944 8.8zM682.407 396.16q-1.392 0-2.192-.704-.8-.72-.8-1.936 0-1.232.8-1.936t2.16-.704h2.72V390q0-.816-.496-1.248-.48-.448-1.376-.448-.784 0-1.312.336-.528.32-.608.88h-1.44a2.54 2.54 0 0 1 1.072-1.808q.928-.672 2.32-.672 1.52 0 2.4.784t.88 2.128V396h-1.408v-1.68h-.24l.24-.24q0 .96-.752 1.52-.737.56-1.968.56m.352-1.136q1.025 0 1.68-.512.656-.512.656-1.312v-1.248h-2.688q-.72 0-1.136.4t-.416 1.088q0 .736.496 1.168.512.416 1.408.416M673.101 396.16q-1.68 0-2.64-.944t-.96-2.576h1.44q0 1.072.56 1.664.577.576 1.6.576t1.584-.576q.576-.592.576-1.664v-7.008h-2.8v-1.312h4.24v8.32q0 1.632-.976 2.576-.96.944-2.624.944M651.066 396v-8.8h1.44v1.68h.304l-.304.336q0-1.04.624-1.6.624-.576 1.728-.576 1.328 0 2.112.816t.784 2.224V396h-1.44v-5.76q0-.943-.512-1.44-.496-.512-1.36-.512-.896 0-1.424.544-.512.544-.512 1.568v5.6zM641.776 396v-8.8h1.408v1.68h.336l-.464 1.04q0-1.424.608-2.144.624-.736 1.84-.736 1.392 0 2.208.88.832.864.832 2.352v.528h-1.44v-.4q0-1.04-.512-1.584-.496-.56-1.424-.56-.912 0-1.44.56-.512.56-.512 1.584v5.6zM635.206 396.16q-1.04 0-1.824-.416a3 3 0 0 1-1.2-1.168q-.416-.768-.416-1.776v-2.4q0-1.024.416-1.776a3 3 0 0 1 1.2-1.168q.785-.416 1.824-.416t1.808.416q.785.416 1.2 1.168.432.751.432 1.776v1.552h-5.472v.848q0 1.04.528 1.6.528.544 1.504.544.832 0 1.344-.288.511-.304.624-.896h1.44q-.144 1.104-1.088 1.76-.928.64-2.32.64m2.032-5.168v-.592q0-1.04-.528-1.6-.512-.56-1.504-.56-.976 0-1.504.56t-.528 1.6v.464h4.176zM625.1 396.16q-1.311 0-2.128-.88-.8-.88-.8-2.384v-2.576q0-1.52.8-2.4t2.128-.88q1.089 0 1.744.592.656.592.656 1.584l-.288-.336h.32l-.032-2v-2.56h1.44V396h-1.44v-1.68h-.288l.288-.336q0 1.008-.656 1.6-.655.576-1.744.576m.48-1.248q.897 0 1.408-.56.513-.56.512-1.552v-2.4q0-.992-.512-1.552-.511-.56-1.408-.56-.912 0-1.44.544t-.528 1.568v2.4q0 1.024.528 1.568t1.44.544M616.019 396.128q-1.056 0-1.824-.4a2.9 2.9 0 0 1-1.2-1.152q-.417-.768-.416-1.808v-2.336q0-1.056.416-1.808a2.9 2.9 0 0 1 1.2-1.152q.768-.4 1.824-.4t1.824.4 1.184 1.152q.432.752.432 1.792v2.352q0 1.04-.432 1.808a2.8 2.8 0 0 1-1.184 1.152q-.768.4-1.824.4m0-1.28q.944 0 1.472-.528t.528-1.552v-2.336q0-1.024-.528-1.552t-1.472-.528q-.929 0-1.472.528-.528.528-.528 1.552v2.336q0 1.024.528 1.552.543.528 1.472.528M602.681 396v-8.8h1.264v1.056h.288l-.224.384q0-.736.384-1.168.4-.432 1.072-.432.736 0 1.136.544t.4 1.536l-.432-.864h.672l-.304.384q0-.736.4-1.168.416-.432 1.088-.432.832 0 1.28.624.464.624.464 1.648V396h-1.328v-6.704q0-.544-.24-.848-.224-.304-.672-.304a.85.85 0 0 0-.688.304q-.24.288-.24.832V396h-1.152v-6.704q0-.56-.256-.848-.24-.304-.688-.304t-.672.304q-.224.288-.224.832V396zM584.213 396v-8.8h1.408v1.68h.336l-.464 1.04q0-1.424.608-2.144.625-.736 1.84-.736 1.392 0 2.208.88.832.864.832 2.352v.528h-1.44v-.4q0-1.04-.512-1.584-.495-.56-1.424-.56-.912 0-1.44.56-.512.56-.512 1.584v5.6zM577.644 396.128q-1.056 0-1.824-.4a2.9 2.9 0 0 1-1.2-1.152q-.417-.768-.416-1.808v-2.336q0-1.056.416-1.808a2.9 2.9 0 0 1 1.2-1.152q.768-.4 1.824-.4t1.824.4 1.184 1.152q.432.752.432 1.792v2.352q0 1.04-.432 1.808a2.8 2.8 0 0 1-1.184 1.152q-.768.4-1.824.4m0-1.28q.944 0 1.472-.528t.528-1.552v-2.336q0-1.024-.528-1.552t-1.472-.528q-.929 0-1.472.528-.528.528-.528 1.552v2.336q0 1.024.528 1.552.543.528 1.472.528M566.77 396v-6.608h-2.56v-1.312h2.56v-1.52q0-1.04.656-1.632.656-.608 1.808-.608h2.576v1.312h-2.576q-.496 0-.768.24-.256.224-.256.688v1.52h3.6v1.312h-3.6V396zM545.534 396v-8.8h1.44v1.68h.304l-.304.336q0-1.04.624-1.6.624-.576 1.728-.576 1.329 0 2.112.816t.784 2.224V396h-1.44v-5.76q0-.943-.512-1.44-.495-.512-1.36-.512-.896 0-1.424.544-.512.544-.512 1.568v5.6zM539.269 396.16q-1.072 0-1.872-.368a2.87 2.87 0 0 1-1.216-1.088q-.432-.704-.432-1.648 0-1.04.56-1.792.575-.751 1.808-1.344l1.552-.752q.704-.336 1.088-.88t.384-1.2q0-.768-.512-1.216-.496-.448-1.36-.448t-1.376.464q-.496.448-.496 1.216 0 .64.368 1.184.383.544 1.04.864l1.552.736q1.28.592 1.856 1.36.576.752.576 1.808 0 1.424-.96 2.272-.945.832-2.56.832m0-1.28q.975 0 1.536-.496.576-.512.576-1.36 0-.688-.368-1.248-.369-.56-1.056-.896l-1.536-.752q-1.28-.624-1.856-1.344t-.576-1.728q0-.896.4-1.552a2.6 2.6 0 0 1 1.136-1.008q.736-.352 1.744-.352t1.744.352q.735.353 1.136 1.008.4.656.4 1.552 0 1.008-.576 1.728-.576.704-1.904 1.36l-1.536.752a2.5 2.5 0 0 0-1.024.88 2.2 2.2 0 0 0-.352 1.216q0 .864.56 1.376.576.512 1.552.512M526.315 396v-1.312h3.168v-9.168l-3.168 2.368v-1.6l2.64-1.968h1.968v10.368h2.592V396zM516.641 396v-1.312h3.12v-6.176h-2.72V387.2h4.16v7.488h2.96V396zm3.68-10.384q-.528 0-.832-.272t-.304-.736q0-.48.304-.752.304-.288.832-.288t.832.288q.304.272.304.752 0 .464-.304.736t-.832.272"/>
  </g>
  <defs>
    <clipPath id="a">
      <path fill="#fff" d="M0 0h1280v640H0z"/>
    </clipPath>
    <clipPath id="b">
      <path fill="#fff" d="M713 40h58v58h-58z"/>
    </clipPath>
    <clipPath id="c">
      <path fill="#fff" d="M890 495h58v58h-58z"/>
    </clipPath>
    <clipPath id="d">
      <path fill="#fff" d="M595 542h58v58h-58z"/>
    </clipPath>
  </defs>
</svg>
